#!OML:ASF E:\Style4\Style4.ASF
:FULLY-SPECIFIED
:DEGREES
1147
root 0.930221 17.2397 -2.406 1.92836 -20.5199 1.35622
lowerback 17.2659 -0.26012 -4.47481
upperback 12.3501 -1.10334 -0.253849
thorax 3.68023 -0.912964 2.39043
lowerneck 3.88125 3.61426 -3.45555
upperneck -0.787215 4.56285 -3.85918
head -0.868857 2.33632 -0.700471
rclavicle 2.10712e-014 -1.23246e-014
rhumerus 25.9012 20.2034 -76.241
rradius 51.6048
rwrist 10.7969
rhand 40.6177 0.562755
rfingers 7.12502
rthumb 62.9052 -9.75645
lclavicle 2.10712e-014 -1.23246e-014
lhumerus 53.8569 0.132582 33.068
lradius 51.6308
lwrist -3.19578
lhand 28.918 40.5956
lfingers 7.12502
lthumb 52.7316 60.2565
rfemur -31.7883 5.63784 15.4294
rtibia 42.5645
rfoot -13.2379 -5.5765
rtoes -17.6122
lfemur -26.8812 10.7826 -21.5897
ltibia 46.2768
lfoot -23.0766 13.5476
ltoes -15.0658
1148
root 0.958283 17.2213 -2.39496 1.81194 -21.2919 1.11443
lowerback 17.3071 -0.248932 -4.70453
upperback 12.4146 -1.12575 -0.552489
thorax 3.73263 -0.932498 2.20501
lowerneck 3.94918 3.98377 -3.24691
upperneck -0.874232 5.06397 -3.57059
head -0.907888 2.58487 -0.658866
rclavicle -7.15625e-015 1.35174e-014
rhumerus 25.0688 19.8632 -76.4096
rradius 52.3112
rwrist 10.2352
rhand 40.2897 0.666472
rfingers 7.12502
rthumb 62.6349 -10.0137
lclavicle -7.15625e-015 1.35174e-014
lhumerus 53.1525 -0.0953943 34.4546
lradius 51.6193
lwrist -4.38473
lhand 29.0001 40.6217
lfingers 7.12502
lthumb 52.8057 60.2363
rfemur -31.7993 6.07526 15.6446
rtibia 42.7217
rfoot -13.2995 -5.3424
rtoes -18.106
lfemur -26.9009 11.3484 -21.3827
ltibia 46.8166
lfoot -23.4298 13.7702
ltoes -14.8135
1149
root 0.985725 17.2069 -2.38111 1.67 -21.9555 0.980871
lowerback 17.3339 -0.256467 -4.96423
upperback 12.4549 -1.17443 -0.892023
thorax 3.76804 -0.963942 1.9965
lowerneck 3.9729 4.29555 -3.00779
upperneck -0.848539 5.4955 -3.32551
head -0.902644 2.79567 -0.631413
rclavicle -9.93923e-015 3.18055e-015
rhumerus 24.1252 19.3818 -76.6371
rradius 53.0782
rwrist 9.86936
rhand 40.162 0.735752
rfingers 7.12502
rthumb 62.5293 -10.0831
lclavicle -9.93923e-015 3.18055e-015
lhumerus 52.4098 -0.413279 35.6589
lradius 51.7224
lwrist -5.35549
lhand 29.06 40.6315
lfingers 7.12502
lthumb 52.8599 60.2122
rfemur -31.7945 6.4454 15.7402
rtibia 42.8827
rfoot -13.3402 -5.13894
rtoes -18.1724
lfemur -26.9275 11.8166 -21.2883
ltibia 47.3022
lfoot -23.6669 14.0785
ltoes -14.7781
1150
root 1.01003 17.1912 -2.36618 1.5092 -22.4857 0.949885
lowerback 17.3268 -0.281319 -5.27744
upperback 12.4888 -1.2491 -1.23708
thorax 3.8181 -1.01127 1.8147
lowerneck 4.00364 4.59302 -2.81555
upperneck -0.819105 5.90593 -3.04745
head -0.899909 2.99568 -0.586116
rclavicle -2.8625e-014 -9.54166e-015
rhumerus 23.0685 18.7198 -76.8926
rradius 53.9886
rwrist 9.65833
rhand 40.1154 0.842836
rfingers 7.12502
rthumb 62.4908 -10.0263
lclavicle -2.8625e-014 -9.54166e-015
lhumerus 51.6615 -0.726045 36.6798
lradius 51.9207
lwrist -6.04745
lhand 29.1615 40.8783
lfingers 7.12502
lthumb 52.9515 60.4013
rfemur -31.804 6.73441 15.7332
rtibia 43.0679
rfoot -13.384 -4.97735
rtoes -18.2443
lfemur -26.8946 12.1457 -21.2911
ltibia 47.7125
lfoot -23.8699 14.2438
ltoes -14.6937
1151
root 1.03452 17.173 -2.35111 1.37691 -22.9553 0.951294
lowerback 17.3926 -0.328161 -5.64381
upperback 12.4536 -1.36536 -1.55683
thorax 3.76008 -1.07962 1.69773
lowerneck 3.96508 4.91576 -2.72781
upperneck -0.715994 6.35075 -2.69883
head -0.868217 3.21037 -0.499967
rclavicle -3.33958e-014 3.73715e-014
rhumerus 21.9468 18.0864 -77.0797
rradius 55.0231
rwrist 9.32181
rhand 40.009 0.769772
rfingers 7.12502
rthumb 62.4026 -10.2136
lclavicle -3.33958e-014 3.73715e-014
lhumerus 50.7986 -1.03006 37.6255
lradius 52.1353
lwrist -6.74489
lhand 29.3358 40.9919
lfingers 7.12502
lthumb 53.1088 60.4152
rfemur -31.8632 6.94906 15.6884
rtibia 43.2736
rfoot -13.4665 -4.80927
rtoes -18.5236
lfemur -26.8492 12.4271 -21.3463
ltibia 48.0641
lfoot -24.0638 14.4606
ltoes -15.1989
1152
root 1.05667 17.1573 -2.33696 1.26745 -23.4218 0.853038
lowerback 17.5051 -0.366041 -5.96703
upperback 12.394 -1.47018 -1.83933
thorax 3.64981 -1.13914 1.59636
lowerneck 3.95685 5.22298 -2.61579
upperneck -0.60989 6.77352 -2.37448
head -0.84046 3.4147 -0.425619
rclavicle 2.38542e-014 -4.77083e-015
rhumerus 20.798 17.4386 -77.1885
rradius 56.1441
rwrist 8.96945
rhand 40.0851 0.541264
rfingers 7.12502
rthumb 62.4657 -10.3605
lclavicle 2.38542e-014 -4.77083e-015
lhumerus 49.8825 -1.43559 38.5693
lradius 52.3982
lwrist -7.47689
lhand 29.6717 41.0774
lfingers 7.12502
lthumb 53.4116 60.3056
rfemur -31.8954 7.24006 15.7432
rtibia 43.4791
rfoot -13.5188 -4.6872
rtoes -18.3245
lfemur -26.7777 12.7305 -21.2783
ltibia 48.3692
lfoot -24.4786 14.554
ltoes -14.9748
1153
root 1.07617 17.1432 -2.32171 1.15872 -23.8117 0.716288
lowerback 17.45 -0.414054 -6.17264
upperback 12.4336 -1.55714 -2.1481
thorax 3.72859 -1.18785 1.39244
lowerneck 3.99371 5.4835 -2.42886
upperneck -0.629479 7.13259 -2.09504
head -0.856379 3.59035 -0.379685
rclavicle 7.15625e-014 1.11319e-014
rhumerus 19.8582 16.669 -77.1979
rradius 57.1435
rwrist 8.57073
rhand 40.5951 0.315886
rfingers 7.12502
rthumb 62.8866 -10.0285
lclavicle 7.15625e-014 1.11319e-014
lhumerus 49.064 -1.9308 39.1804
lradius 52.7953
lwrist -7.8051
lhand 30.0565 41.3465
lfingers 7.12502
lthumb 53.7577 60.3471
rfemur -31.8567 7.50383 15.8486
rtibia 43.661
rfoot -13.5481 -4.67602
rtoes -18.7269
lfemur -26.681 12.9798 -21.1596
ltibia 48.6557
lfoot -24.8693 14.5461
ltoes -14.5723
1154
root 1.09416 17.13 -2.30506 1.02037 -24.1677 0.611325
lowerback 17.3766 -0.467263 -6.37362
upperback 12.469 -1.64788 -2.48605
thorax 3.81137 -1.2368 1.15467
lowerneck 4.05274 5.76105 -2.13935
upperneck -0.6295 7.51796 -1.88626
head -0.863621 3.77929 -0.372338
rclavicle 4.37326e-014 -3.02153e-014
rhumerus 18.8696 15.8974 -77.1393
rradius 58.1915
rwrist 8.10721
rhand 41.0775 0.273826
rfingers 7.12502
rthumb 63.2821 -9.52647
lclavicle 4.37326e-014 -3.02153e-014
lhumerus 48.2187 -2.52074 39.5236
lradius 53.1994
lwrist -7.61631
lhand 29.4883 41.3323
lfingers 7.12502
lthumb 53.2463 60.6674
rfemur -31.7877 7.74916 15.9222
rtibia 43.8294
rfoot -13.6136 -4.63768
rtoes -19.0607
lfemur -26.5431 13.2477 -21.0689
ltibia 48.9311
lfoot -25.0931 14.518
ltoes -14.5441
